<?xml version="1.0" encoding="UTF-8"?>
<!DOCTYPE svg PUBLIC "-//W3C//DTD SVG 1.1//EN" "http://www.w3.org/Graphics/SVG/1.1/DTD/svg11.dtd">
<svg xmlns="http://www.w3.org/2000/svg" version="1.1" width="563px" height="568px" style="shape-rendering:geometricPrecision; text-rendering:geometricPrecision; image-rendering:optimizeQuality; fill-rule:evenodd; clip-rule:evenodd" xmlns:xlink="http://www.w3.org/1999/xlink">
<g><path style="opacity:0.9" fill="#eec9a4" d="M 294.5,-0.5 C 299.833,-0.5 305.167,-0.5 310.5,-0.5C 399.014,6.66599 467.514,47.3327 516,121.5C 530.944,145.165 542.111,170.498 549.5,197.5C 549.167,197.5 548.833,197.5 548.5,197.5C 519.799,112.965 464.132,53.7986 381.5,20C 348.594,7.84876 314.594,1.51543 279.5,1C 284.684,0.826144 289.684,0.326144 294.5,-0.5 Z"/></g>
<g><path style="opacity:0.325" fill="#eec9a4" d="M 548.5,197.5 C 548.833,197.5 549.167,197.5 549.5,197.5C 552.083,203.83 553.749,210.497 554.5,217.5C 552.52,210.933 550.52,204.266 548.5,197.5 Z"/></g>
<g><path style="opacity:0.031" fill="#eec9a4" d="M 554.5,217.5 C 555.434,218.568 555.768,219.901 555.5,221.5C 554.566,220.432 554.232,219.099 554.5,217.5 Z"/></g>
<g><path style="opacity:0.078" fill="#eec9a4" d="M 555.5,221.5 C 556.598,222.601 556.765,223.934 556,225.5C 555.51,224.207 555.343,222.873 555.5,221.5 Z"/></g>
<g><path style="opacity:0.055" fill="#eec9a4" d="M 556.5,227.5 C 557.573,228.251 557.74,229.251 557,230.5C 556.517,229.552 556.351,228.552 556.5,227.5 Z"/></g>
<g><path style="opacity:0.027" fill="#eec9a4" d="M 557.5,233.5 C 558.525,233.897 558.692,234.563 558,235.5C 557.536,234.906 557.369,234.239 557.5,233.5 Z"/></g>
<g><path style="opacity:0.027" fill="#eec9a4" d="M 553.5,352.5 C 554.833,353.167 554.833,353.167 553.5,352.5 Z"/></g>
<g><path style="opacity:0.047" fill="#eec9a4" d="M 552.5,355.5 C 553.573,356.251 553.74,357.251 553,358.5C 552.517,357.552 552.351,356.552 552.5,355.5 Z"/></g>
<g><path style="opacity:0.082" fill="#eec9a4" d="M 551.5,359.5 C 552.573,360.251 552.74,361.251 552,362.5C 551.517,361.552 551.351,360.552 551.5,359.5 Z"/></g>
<g><path style="opacity:0.086" fill="#eec9a4" d="M 550.5,366.5 C 550.351,365.448 550.517,364.448 551,363.5C 551.74,364.749 551.573,365.749 550.5,366.5 Z"/></g>
<g><path style="opacity:0.141" fill="#eec9a4" d="M 550.5,366.5 C 550.737,367.791 550.404,368.791 549.5,369.5C 549.263,368.209 549.596,367.209 550.5,366.5 Z"/></g>
<g><path style="opacity:0.173" fill="#eec9a4" d="M 549.5,369.5 C 548.771,374.351 547.438,379.018 545.5,383.5C 545.167,383.5 544.833,383.5 544.5,383.5C 545.796,378.607 547.462,373.94 549.5,369.5 Z"/></g>
<g><path style="opacity:0.874" fill="#eec9a4" d="M 544.5,383.5 C 544.833,383.5 545.167,383.5 545.5,383.5C 516.823,465.343 462.156,522.177 381.5,554C 358.304,561.752 334.637,566.252 310.5,567.5C 306.5,567.5 302.5,567.5 298.5,567.5C 364.241,561.953 421.574,537.286 470.5,493.5C 474.1,491.57 477.1,488.903 479.5,485.5C 507.695,455.804 529.362,421.804 544.5,383.5 Z"/></g>
<g><path style="opacity:0.702" fill="#eec9a4" d="M 479.5,485.5 C 477.1,488.903 474.1,491.57 470.5,493.5C 472.9,490.097 475.9,487.43 479.5,485.5 Z"/></g>
</svg>
