<svg width="55" height="29" viewBox="0 0 55 29" fill="none" xmlns="http://www.w3.org/2000/svg">
<path fill-rule="evenodd" clip-rule="evenodd" d="M9.21894 17.5904C8.78159 17.5904 8.43918 17.8964 8.43918 18.3429C8.43918 18.7896 8.78335 19.0938 9.21894 19.0938C9.65423 19.0938 9.99871 18.7876 9.99871 18.3429C9.99871 17.8964 9.656 17.5904 9.21894 17.5904ZM9.21894 18.8787C8.90709 18.8787 8.67578 18.6509 8.67578 18.3429C8.67578 18.0351 8.90533 17.8056 9.21894 17.8056C9.52873 17.8056 9.76181 18.0387 9.76181 18.3429C9.76181 18.6453 9.52667 18.8787 9.21894 18.8787ZM16.8064 14.9587H13.0105L13.442 8.3608L10.9769 14.9587H7.4519L13.0449 0.0455551H16.7956L16.3626 6.73396L18.8745 0.0455551H22.3997L16.8064 14.9587ZM17.2644 14.9587L22.857 0.0455551H26.382L20.7893 14.9587H17.2644Z" fill="white"/>
<path fill-rule="evenodd" clip-rule="evenodd" d="M7.04546 9.81835C2.11968 15.603 -2.52687 23.2998 1.57741 26.8442C5.55442 30.2789 10.5255 28.2453 13.9149 26.8894C17.3044 25.5336 54.7681 9.2646 54.7681 9.2646C55.1296 9.08384 55.062 8.85782 54.61 8.97068C54.4278 9.01624 13.8247 20.02 13.8247 20.02C8.6723 21.4663 2.79746 18.3141 7.04546 9.81835Z" fill="white"/>
<path fill-rule="evenodd" clip-rule="evenodd" d="M9.35195 18.3958C9.46129 18.3905 9.54682 18.334 9.54682 18.1827C9.54682 17.9875 9.41926 17.9384 9.20617 17.9384H8.8999V18.7476H9.10418V18.4031H9.13856L9.32461 18.7476H9.55946L9.35195 18.3958ZM9.22086 18.2647H9.10447V18.0769H9.20264C9.26289 18.0769 9.33196 18.0839 9.33196 18.1624C9.33196 18.2465 9.29199 18.2647 9.22086 18.2647ZM44.6533 0C44.216 0 43.8736 0.306262 43.8736 0.75243C43.8736 1.19889 44.218 1.5031 44.6533 1.5031C45.0886 1.5031 45.4331 1.19684 45.4331 0.75243C45.4334 0.306262 45.091 0 44.6533 0ZM44.6533 1.28854C44.3415 1.28854 44.1102 1.06075 44.1102 0.752725C44.1102 0.444993 44.3397 0.215442 44.6533 0.215442C44.9631 0.215442 45.1965 0.44852 45.1965 0.752725C45.1965 1.05517 44.9613 1.28854 44.6533 1.28854Z" fill="white"/>
<path fill-rule="evenodd" clip-rule="evenodd" d="M44.7864 0.805334C44.8957 0.800043 44.9815 0.743612 44.9815 0.592244C44.9815 0.397082 44.8537 0.347997 44.6409 0.347997H44.3346V1.15686H44.5386V0.812682H44.5733L44.759 1.15686H44.9942L44.7864 0.805334ZM44.655 0.674247H44.5386V0.486433H44.637C44.697 0.486433 44.7664 0.493781 44.7664 0.572257C44.7664 0.656024 44.7261 0.674247 44.655 0.674247ZM42.3307 2.53122L43.278 0.0455551H32.5223L28.8292 4.51958L30.5342 0.0455551H26.964L21.416 14.9587H24.941L27.3097 8.72232L27.4719 14.9587L38.2878 14.9352L39.3174 12.0665H35.2052L36.5563 8.45133H39.9455L40.9883 5.67203H37.5992L38.761 2.53122H42.3307ZM30.969 13.9644L30.7429 6.19168L36.0726 0.340061L30.969 13.9644Z" fill="white"/>
</svg>
